HIERARCHY
ROOT Hips
{
    OFFSET 0.000000 0.000000 0.000000
    CHANNELS 6 Xposition Yposition Zposition Zrotation Xrotation Yrotation
    JOINT Spine
    {
        OFFSET -0.000000 0.066269 -0.000000
        CHANNELS 3 Zrotation Xrotation Yrotation
        JOINT Spine1
        {
            OFFSET -0.000000 0.205844 -0.000000
            CHANNELS 3 Zrotation Xrotation Yrotation
            JOINT Neck
            {
                OFFSET -0.000000 0.225106 -0.000000
                CHANNELS 3 Zrotation Xrotation Yrotation
                JOINT Head
                {
                    OFFSET -0.000000 0.093355 0.018050
                    CHANNELS 3 Zrotation Xrotation Yrotation
                    End Site
                    {
                        OFFSET 0.000000 0.180501 0.000000
                    }
                }
            }
            JOINT LeftShoulder
            {
                OFFSET 0.035943 0.203066 -0.000791
                CHANNELS 3 Zrotation Xrotation Yrotation
                JOINT LeftArm
                {
                    OFFSET 0.131826 -0.000000 0.000000
                    CHANNELS 3 Zrotation Xrotation Yrotation
                    JOINT LeftForeArm
                    {
                        OFFSET 0.279247 0.000000 -0.000000
                        CHANNELS 3 Zrotation Xrotation Yrotation
                        JOINT LeftHand
                        {
                            OFFSET 0.238066 -0.000000 0.000000
                            CHANNELS 3 Zrotation Xrotation Yrotation
                            End Site
                            {
                                OFFSET -0.000000 -0.135376 0.000000
                            }
                        }
                    }
                }
            }
            JOINT RightShoulder
            {
                OFFSET -0.035943 0.203066 -0.000791
                CHANNELS 3 Zrotation Xrotation Yrotation
                JOINT RightArm
                {
                    OFFSET -0.131826 -0.000000 0.000000
                    CHANNELS 3 Zrotation Xrotation Yrotation
                    JOINT RightForeArm
                    {
                        OFFSET -0.279247 0.000000 -0.000000
                        CHANNELS 3 Zrotation Xrotation Yrotation
                        JOINT RightHand
                        {
                            OFFSET -0.238066 -0.000000 -0.000000
                            CHANNELS 3 Zrotation Xrotation Yrotation
                            End Site
                            {
                                OFFSET 0.000000 -0.135376 0.000000
                            }
                        }
                    }
                }
            }
        }
    }
    JOINT LeftUpLeg
    {
        OFFSET 0.090251 -0.000000 -0.000000
        CHANNELS 3 Zrotation Xrotation Yrotation
        JOINT LeftLeg
        {
            OFFSET 0.000000 -0.403732 0.000000
            CHANNELS 3 Zrotation Xrotation Yrotation
            JOINT LeftFoot
            {
                OFFSET -0.000000 -0.388189 0.000000
                CHANNELS 3 Zrotation Xrotation Yrotation
                JOINT LeftToeBase
                {
                    OFFSET -0.000000 -0.058663 0.135376
                    CHANNELS 3 Zrotation Xrotation Yrotation
                    End Site
                    {
                        OFFSET 0.000000 0.000000 0.036100
                    }
                }
            }
        }
    }
    JOINT RightUpLeg
    {
        OFFSET -0.090251 0.000000 0.000000
        CHANNELS 3 Zrotation Xrotation Yrotation
        JOINT RightLeg
        {
            OFFSET 0.000000 -0.403732 0.000000
            CHANNELS 3 Zrotation Xrotation Yrotation
            JOINT RightFoot
            {
                OFFSET 0.000000 -0.388189 -0.000000
                CHANNELS 3 Zrotation Xrotation Yrotation
                JOINT RightToeBase
                {
                    OFFSET 0.000000 -0.058663 0.135376
                    CHANNELS 3 Zrotation Xrotation Yrotation
                    End Site
                    {
                        OFFSET 0.000000 0.000000 0.036100
                    }
                }
            }
        }
    }
}
MOTION
Frames:    11
Frame Time:    0.004167
0.321594    1.198051    -0.192281    93.076782    31.214792    -166.677017    4.798749    39.511860    -7.516638    1.381899    21.669983    -5.892412    16.293303    26.003986    -16.502934    15.250438    28.549004    -16.370968    19.352320    15.461184    -32.078632    -43.534382    64.293686    -34.370857    -3.616884    -8.871667    -22.287167    -175.211609    -30.556122    16.163635    3.779469    6.501730    5.067314    32.375813    -14.296730    7.982932    3.778985    -17.619507    12.309671    -102.798584    6.968091    -18.542555    56.582607    -75.782982    55.865570    180.000000    58.796310    -180.000000    13.018262    17.227863    12.576999    0.000004    -5.768447    0.000004    77.934692    -71.214386    65.522285    -179.999969    86.723679    179.999969    14.495282    25.446291    -6.906190    -0.000003    -14.850643    0.000002    
0.321234    1.197956    -0.191892    93.147728    31.144693    -166.630081    4.800776    39.511532    -7.519856    1.404615    21.609976    -5.903963    16.250969    26.002081    -16.505777    15.318200    28.529007    -16.425932    19.390326    15.428158    -32.135380    -43.536072    64.315956    -34.383274    -3.644853    -8.911642    -22.352848    -175.239410    -30.522306    16.129257    3.875804    6.469076    5.016523    32.186707    -14.047960    8.047919    3.693605    -17.576475    12.066701    -102.371750    6.992619    -18.467081    56.291138    -75.930740    55.603680    180.000000    58.858070    -180.000000    12.874717    17.251823    12.548146    0.000003    -5.811565    0.000000    77.879829    -71.326248    65.524940    -179.999969    86.656425    179.999969    14.421352    25.604727    -6.793229    -0.000004    -14.819911    -0.000000    
0.321341    1.198022    -0.192032    93.245178    31.174097    -166.655563    4.777369    39.524513    -7.481406    1.407001    21.609232    -5.876359    16.224125    26.009192    -16.514999    15.365813    28.534718    -16.471643    19.452715    15.408047    -32.185577    -43.538261    64.377075    -34.408760    -3.666362    -8.931817    -22.426641    -175.248047    -30.512754    16.118050    3.977503    6.421296    4.959424    32.007629    -13.758074    8.125272    3.601099    -17.548571    11.789858    -101.938492    7.002956    -18.412113    56.389526    -75.967628    55.725445    -180.000000    58.794262    180.000000    12.782320    17.283684    12.603720    -0.000007    -5.864832    -0.000000    77.923256    -71.327606    65.582474    -179.999924    86.498428    179.999924    14.439651    25.733105    -6.702435    0.000000    -14.810575    0.000000    
0.321335    1.197952    -0.191837    93.349449    31.204607    -166.686432    4.730108    39.496849    -7.412163    1.458681    21.738958    -5.846261    16.193350    25.950195    -16.502665    15.380867    28.505789    -16.487215    19.533995    15.302749    -32.251961    -43.456757    64.417221    -34.536388    -3.694675    -8.967351    -22.503016    -175.255585    -30.497038    16.112240    4.040679    6.336645    4.922917    31.823368    -13.456829    8.223467    3.501926    -17.559120    11.466604    -101.524353    6.999073    -18.401215    56.360355    -76.005226    55.712013    180.000000    58.769966    -180.000000    12.715338    17.336409    12.601101    0.000000    -5.907437    0.000003    77.908333    -71.362793    65.561508    -179.999893    86.363525    179.999908    14.426439    25.920025    -6.574372    0.000003    -14.804920    -0.000003    
0.321313    1.197977    -0.191846    93.459244    31.229073    -166.711685    4.679737    39.471157    -7.337715    1.526120    21.830236    -5.818850    16.157963    25.893185    -16.489294    15.388079    28.487865    -16.501076    19.607676    15.223939    -32.308628    -43.378269    64.469353    -34.669277    -3.721736    -9.006548    -22.563719    -175.251221    -30.487288    16.125771    4.123275    6.237811    4.867703    31.647018    -13.148706    8.321181    3.405546    -17.623333    11.119949    -101.145584    6.976211    -18.452188    56.403828    -76.030937    55.771332    -180.000000    58.742592    180.000000    12.648602    17.390844    12.592724    0.000000    -5.926547    0.000000    77.907867    -71.387558    65.562943    -179.999939    86.219131    179.999939    14.449248    26.077175    -6.486615    0.000004    -14.818864    0.000002    
0.321210    1.198031    -0.191711    93.572937    31.245972    -166.739273    4.647695    39.466885    -7.288439    1.564170    21.879669    -5.797535    16.113855    25.854172    -16.485580    15.419610    28.484934    -16.540043    19.660334    15.159007    -32.340366    -43.295506    64.525047    -34.787369    -3.744326    -9.044304    -22.602726    -175.229004    -30.489330    16.166767    4.225336    6.136678    4.839033    31.465685    -12.840611    8.423628    3.315883    -17.723978    10.775368    -100.817955    6.938599    -18.546730    56.412529    -76.050453    55.793995    180.000000    58.738598    -180.000000    12.626710    17.424324    12.584953    0.000000    -5.918427    0.000002    77.916939    -71.413559    65.585068    179.999878    86.094955    -179.999878    14.527129    26.268877    -6.450593    0.000007    -14.817472    0.000000    
0.321101    1.198175    -0.191845    93.679001    31.259041    -166.757370    4.650746    39.521641    -7.284826    1.550451    21.768894    -5.787001    16.039993    25.884914    -16.453979    15.432408    28.526348    -16.551279    19.656570    15.178983    -32.312046    -43.261711    64.615349    -34.837730    -3.754880    -9.064747    -22.614592    -175.198120    -30.530355    16.203035    4.374341    6.069664    4.820027    31.277086    -12.517422    8.495966    3.228476    -17.837660    10.433787    -100.539413    6.878959    -18.661001    56.526451    -76.050308    55.922928    180.000000    58.701817    -180.000000    12.617115    17.438869    12.577482    -0.000003    -5.897025    -0.000000    77.983643    -71.409180    65.680687    179.999985    85.942131    -179.999985    14.574068    26.427214    -6.360945    0.000003    -14.792506    -0.000000    
0.321074    1.198265    -0.191747    93.769379    31.271400    -166.777405    4.661731    39.614483    -7.287778    1.515715    21.614304    -5.771050    15.963930    25.933355    -16.422586    15.452716    28.573513    -16.565718    19.643158    15.194454    -32.281765    -43.203056    64.708916    -34.891571    -3.768316    -9.096864    -22.616106    -175.186096    -30.553083    16.213524    4.530384    6.026567    4.830860    31.058912    -12.200319    8.535218    3.142668    -17.943432    10.105047    -100.295273    6.770844    -18.777878    56.587620    -76.067719    55.998348    179.999985    58.707737    -179.999985    12.596541    17.448339    12.518168    -0.000003    -5.807955    -0.000000    78.035553    -71.427505    65.761429    -180.000000    85.784851    180.000000    14.645891    26.552183    -6.335944    0.000007    -14.786410    0.000001    
0.321052    1.198281    -0.191707    93.862236    31.290422    -166.776382    4.659355    39.655605    -7.277839    1.539494    21.568277    -5.770093    15.885242    25.952213    -16.392885    15.487546    28.583591    -16.589975    19.636627    15.170918    -32.247875    -43.076443    64.807007    -35.032131    -3.783303    -9.116613    -22.653370    -175.145660    -30.594555    16.267447    4.665667    5.984026    4.873578    30.819429    -11.923384    8.554699    3.058327    -18.061996    9.777461    -100.072609    6.650778    -18.909609    56.594719    -76.099426    56.018848    -180.000000    58.679447    180.000000    12.565239    17.460646    12.496482    -0.000007    -5.653619    -0.000000    78.063789    -71.460388    65.819122    -179.999985    85.618362    179.999985    14.705121    26.687479    -6.316201    -0.000006    -14.788225    0.000004    
0.321091    1.198324    -0.191549    93.942352    31.309673    -166.780563    4.644346    39.695435    -7.248533    1.558190    21.555084    -5.753182    15.794777    25.942654    -16.342985    15.518050    28.556383    -16.596979    19.636761    15.117671    -32.232433    -42.911549    64.886658    -35.200790    -3.798746    -9.145898    -22.671804    -175.096451    -30.648569    16.330946    4.787207    5.958226    4.930635    30.585567    -11.678802    8.559280    2.978990    -18.183207    9.467816    -99.863564    6.542202    -19.041615    56.539375    -76.133308    55.975449    -180.000000    58.715107    180.000000    12.511131    17.532532    12.411300    0.000004    -5.350630    0.000002    78.100471    -71.494324    65.895226    179.999908    85.453560    -179.999908    14.732557    26.824675    -6.281573    0.000007    -14.804290    0.000000    
0.321051    1.198388    -0.191584    94.018677    31.325994    -166.777817    4.620753    39.720093    -7.208250    1.584372    21.551195    -5.732245    15.726562    25.912210    -16.296305    15.546247    28.522894    -16.597803    19.640518    15.072898    -32.221958    -42.765022    64.963470    -35.360897    -3.822932    -9.203673    -22.674320    -175.098358    -30.649437    16.326883    4.910503    5.950748    4.973876    30.360062    -11.467709    8.543651    2.905716    -18.286123    9.189214    -99.647888    6.426977    -19.156153    56.635979    -76.165916    56.085468    180.000000    58.689274    -180.000000    12.437564    17.620186    12.355747    -0.000007    -4.936808    -0.000004    78.148422    -71.512177    65.986565    179.999878    85.279213    -179.999878    14.768432    26.952641    -6.260028    -0.000007    -14.823703    0.000001    
